<svg width="1920" height="700" viewBox="0 0 1920 700" fill="none" xmlns="http://www.w3.org/2000/svg">
<g clip-path="url(#clip0_184_1206)">
<path d="M1093 218.687V181.296C1106.24 175.86 1119.82 173 1133.66 173C1153.85 173 1173.47 179.081 1192.31 190.364C1206.81 199.048 1220.53 202.951 1233.68 202.951C1246.84 202.951 1260.56 199.048 1275.06 190.364C1293.9 179.081 1313.52 173 1333.71 173C1353.89 173 1373.51 179.081 1392.35 190.364C1406.85 199.048 1420.57 202.951 1433.73 202.951C1446.88 202.951 1460.6 199.048 1475.1 190.364C1493.94 179.081 1513.56 173 1533.75 173C1553.93 173 1573.56 179.081 1592.4 190.364C1606.9 199.048 1620.61 202.951 1633.77 202.951C1646.92 202.951 1660.64 199.048 1675.14 190.364C1693.98 179.081 1713.6 173 1733.79 173C1753.98 173 1773.6 179.081 1792.44 190.364C1806.94 199.048 1820.66 202.951 1833.81 202.951C1846.96 202.951 1860.68 199.048 1875.18 190.364C1894.02 179.081 1913.64 173 1933.83 173C1954.02 173 1973.64 179.081 1992.48 190.364C2006.98 199.048 2020.7 202.951 2033.85 202.951C2046.02 202.951 2058.68 199.607 2072 192.222V229.175C2059.55 233.961 2046.82 236.471 2033.85 236.471C2013.66 236.471 1994.04 230.391 1975.2 219.107C1960.7 210.423 1946.98 206.52 1933.83 206.52C1920.68 206.52 1906.96 210.423 1892.46 219.107C1873.62 230.391 1854 236.471 1833.81 236.471C1813.62 236.471 1794 230.391 1775.16 219.107C1760.66 210.423 1746.94 206.52 1733.79 206.52C1720.64 206.52 1706.92 210.423 1692.42 219.107C1673.58 230.391 1653.95 236.471 1633.77 236.471C1613.58 236.471 1593.96 230.391 1575.12 219.107C1560.62 210.423 1546.9 206.52 1533.75 206.52C1520.59 206.52 1506.87 210.423 1492.37 219.107C1473.53 230.391 1453.91 236.471 1433.73 236.471C1413.54 236.471 1393.92 230.391 1375.08 219.107C1360.58 210.423 1346.86 206.52 1333.71 206.52C1320.55 206.52 1306.83 210.423 1292.33 219.107C1273.49 230.391 1253.87 236.471 1233.68 236.471C1213.5 236.471 1193.88 230.391 1175.04 219.107C1160.54 210.423 1146.82 206.52 1133.66 206.52C1120.73 206.52 1107.24 210.297 1093 218.687Z" stroke="#E57F45" stroke-width="1.5"/>
<path d="M1093 291.069V253.678C1106.24 248.242 1119.82 245.382 1133.66 245.382C1153.85 245.382 1173.47 251.463 1192.31 262.747C1206.81 271.431 1220.53 275.334 1233.68 275.334C1246.84 275.334 1260.56 271.431 1275.06 262.747C1293.9 251.463 1313.52 245.382 1333.71 245.382C1353.89 245.382 1373.51 251.463 1392.35 262.747C1406.85 271.431 1420.57 275.334 1433.73 275.334C1446.88 275.334 1460.6 271.431 1475.1 262.747C1493.94 251.463 1513.56 245.382 1533.75 245.382C1553.93 245.382 1573.56 251.463 1592.4 262.747C1606.9 271.431 1620.61 275.334 1633.77 275.334C1646.92 275.334 1660.64 271.431 1675.14 262.747C1693.98 251.463 1713.6 245.382 1733.79 245.382C1753.98 245.382 1773.6 251.463 1792.44 262.747C1806.94 271.431 1820.66 275.334 1833.81 275.334C1846.96 275.334 1860.68 271.431 1875.18 262.747C1894.02 251.463 1913.64 245.382 1933.83 245.382C1954.02 245.382 1973.64 251.463 1992.48 262.747C2006.98 271.431 2020.7 275.334 2033.85 275.334C2046.02 275.334 2058.68 271.989 2072 264.604V301.557C2059.55 306.344 2046.82 308.854 2033.85 308.854C2013.66 308.854 1994.04 302.773 1975.2 291.49C1960.7 282.806 1946.98 278.902 1933.83 278.902C1920.68 278.902 1906.96 282.806 1892.46 291.49C1873.62 302.773 1854 308.854 1833.81 308.854C1813.62 308.854 1794 302.773 1775.16 291.49C1760.66 282.806 1746.94 278.902 1733.79 278.902C1720.64 278.902 1706.92 282.806 1692.42 291.49C1673.58 302.773 1653.95 308.854 1633.77 308.854C1613.58 308.854 1593.96 302.773 1575.12 291.49C1560.62 282.806 1546.9 278.902 1533.75 278.902C1520.59 278.902 1506.87 282.806 1492.37 291.49C1473.53 302.773 1453.91 308.854 1433.73 308.854C1413.54 308.854 1393.92 302.773 1375.08 291.49C1360.58 282.806 1346.86 278.902 1333.71 278.902C1320.55 278.902 1306.83 282.806 1292.33 291.49C1273.49 302.773 1253.87 308.854 1233.68 308.854C1213.5 308.854 1193.88 302.773 1175.04 291.49C1160.54 282.806 1146.82 278.902 1133.66 278.902C1120.73 278.902 1107.24 282.68 1093 291.069Z" stroke="#E57F45" stroke-width="1.5"/>
<path d="M1093 363.451V326.06C1106.24 320.624 1119.82 317.764 1133.66 317.764C1153.85 317.764 1173.47 323.845 1192.31 335.128C1206.81 343.812 1220.53 347.716 1233.68 347.716C1246.84 347.716 1260.56 343.812 1275.06 335.128C1293.9 323.845 1313.52 317.764 1333.71 317.764C1353.89 317.764 1373.51 323.845 1392.35 335.128C1406.85 343.812 1420.57 347.716 1433.73 347.716C1446.88 347.716 1460.6 343.812 1475.1 335.128C1493.94 323.845 1513.56 317.764 1533.75 317.764C1553.93 317.764 1573.56 323.845 1592.4 335.128C1606.9 343.812 1620.61 347.716 1633.77 347.716C1646.92 347.716 1660.64 343.812 1675.14 335.128C1693.98 323.845 1713.6 317.764 1733.79 317.764C1753.98 317.764 1773.6 323.845 1792.44 335.128C1806.94 343.812 1820.66 347.716 1833.81 347.716C1846.96 347.716 1860.68 343.812 1875.18 335.128C1894.02 323.845 1913.64 317.764 1933.83 317.764C1954.02 317.764 1973.64 323.845 1992.48 335.128C2006.98 343.812 2020.7 347.716 2033.85 347.716C2046.02 347.716 2058.68 344.371 2072 336.986V373.939C2059.55 378.726 2046.82 381.236 2033.85 381.236C2013.66 381.236 1994.04 375.155 1975.2 363.871C1960.7 355.187 1946.98 351.284 1933.83 351.284C1920.68 351.284 1906.96 355.187 1892.46 363.871C1873.62 375.155 1854 381.236 1833.81 381.236C1813.62 381.236 1794 375.155 1775.16 363.871C1760.66 355.187 1746.94 351.284 1733.79 351.284C1720.64 351.284 1706.92 355.187 1692.42 363.871C1673.58 375.155 1653.95 381.236 1633.77 381.236C1613.58 381.236 1593.96 375.155 1575.12 363.871C1560.62 355.187 1546.9 351.284 1533.75 351.284C1520.59 351.284 1506.87 355.187 1492.37 363.871C1473.53 375.155 1453.91 381.236 1433.73 381.236C1413.54 381.236 1393.92 375.155 1375.08 363.871C1360.58 355.187 1346.86 351.284 1333.71 351.284C1320.55 351.284 1306.83 355.187 1292.33 363.871C1273.49 375.155 1253.87 381.236 1233.68 381.236C1213.5 381.236 1193.88 375.155 1175.04 363.871C1160.54 355.187 1146.82 351.284 1133.66 351.284C1120.73 351.284 1107.24 355.061 1093 363.451Z" stroke="#E57F45" stroke-width="1.5"/>
<path d="M1093 435.834V398.443C1106.24 393.007 1119.82 390.147 1133.66 390.147C1153.85 390.147 1173.47 396.228 1192.31 407.511C1206.81 416.195 1220.53 420.098 1233.68 420.098C1246.84 420.098 1260.56 416.195 1275.06 407.511C1293.9 396.228 1313.52 390.147 1333.71 390.147C1353.89 390.147 1373.51 396.228 1392.35 407.511C1406.85 416.195 1420.57 420.098 1433.73 420.098C1446.88 420.098 1460.6 416.195 1475.1 407.511C1493.94 396.228 1513.56 390.147 1533.75 390.147C1553.93 390.147 1573.56 396.228 1592.4 407.511C1606.9 416.195 1620.61 420.098 1633.77 420.098C1646.92 420.098 1660.64 416.195 1675.14 407.511C1693.98 396.228 1713.6 390.147 1733.79 390.147C1753.98 390.147 1773.6 396.228 1792.44 407.511C1806.94 416.195 1820.66 420.098 1833.81 420.098C1846.96 420.098 1860.68 416.195 1875.18 407.511C1894.02 396.228 1913.64 390.147 1933.83 390.147C1954.02 390.147 1973.64 396.228 1992.48 407.511C2006.98 416.195 2020.7 420.098 2033.85 420.098C2046.02 420.098 2058.68 416.754 2072 409.369V446.321C2059.55 451.108 2046.82 453.618 2033.85 453.618C2013.66 453.618 1994.04 447.538 1975.2 436.254C1960.7 427.57 1946.98 423.667 1933.83 423.667C1920.68 423.667 1906.96 427.57 1892.46 436.254C1873.62 447.538 1854 453.618 1833.81 453.618C1813.62 453.618 1794 447.538 1775.16 436.254C1760.66 427.57 1746.94 423.667 1733.79 423.667C1720.64 423.667 1706.92 427.57 1692.42 436.254C1673.58 447.538 1653.95 453.618 1633.77 453.618C1613.58 453.618 1593.96 447.538 1575.12 436.254C1560.62 427.57 1546.9 423.667 1533.75 423.667C1520.59 423.667 1506.87 427.57 1492.37 436.254C1473.53 447.538 1453.91 453.618 1433.73 453.618C1413.54 453.618 1393.92 447.538 1375.08 436.254C1360.58 427.57 1346.86 423.667 1333.71 423.667C1320.55 423.667 1306.83 427.57 1292.33 436.254C1273.49 447.538 1253.87 453.618 1233.68 453.618C1213.5 453.618 1193.88 447.538 1175.04 436.254C1160.54 427.57 1146.82 423.667 1133.66 423.667C1120.73 423.667 1107.24 427.444 1093 435.834Z" stroke="#E57F45" stroke-width="1.5"/>
<path d="M1093 508.216V470.825C1106.24 465.388 1119.82 462.529 1133.66 462.529C1153.85 462.529 1173.47 468.609 1192.31 479.893C1206.81 488.577 1220.53 492.48 1233.68 492.48C1246.84 492.48 1260.56 488.577 1275.06 479.893C1293.9 468.609 1313.52 462.529 1333.71 462.529C1353.89 462.529 1373.51 468.609 1392.35 479.893C1406.85 488.577 1420.57 492.48 1433.73 492.48C1446.88 492.48 1460.6 488.577 1475.1 479.893C1493.94 468.609 1513.56 462.529 1533.75 462.529C1553.93 462.529 1573.56 468.609 1592.4 479.893C1606.9 488.577 1620.61 492.48 1633.77 492.48C1646.92 492.48 1660.64 488.577 1675.14 479.893C1693.98 468.609 1713.6 462.529 1733.79 462.529C1753.98 462.529 1773.6 468.609 1792.44 479.893C1806.94 488.577 1820.66 492.48 1833.81 492.48C1846.96 492.48 1860.68 488.577 1875.18 479.893C1894.02 468.609 1913.64 462.529 1933.83 462.529C1954.02 462.529 1973.64 468.609 1992.48 479.893C2006.98 488.577 2020.7 492.48 2033.85 492.48C2046.02 492.48 2058.68 489.136 2072 481.75V518.703C2059.55 523.49 2046.82 526 2033.85 526C2013.66 526 1994.04 519.919 1975.2 508.636C1960.7 499.952 1946.98 496.049 1933.83 496.049C1920.68 496.049 1906.96 499.952 1892.46 508.636C1873.62 519.919 1854 526 1833.81 526C1813.62 526 1794 519.919 1775.16 508.636C1760.66 499.952 1746.94 496.049 1733.79 496.049C1720.64 496.049 1706.92 499.952 1692.42 508.636C1673.58 519.919 1653.95 526 1633.77 526C1613.58 526 1593.96 519.919 1575.12 508.636C1560.62 499.952 1546.9 496.049 1533.75 496.049C1520.59 496.049 1506.87 499.952 1492.37 508.636C1473.53 519.919 1453.91 526 1433.73 526C1413.54 526 1393.92 519.919 1375.08 508.636C1360.58 499.952 1346.86 496.049 1333.71 496.049C1320.55 496.049 1306.83 499.952 1292.33 508.636C1273.49 519.919 1253.87 526 1233.68 526C1213.5 526 1193.88 519.919 1175.04 508.636C1160.54 499.952 1146.82 496.049 1133.66 496.049C1120.73 496.049 1107.24 499.826 1093 508.216Z" stroke="#E57F45" stroke-width="1.5"/>
<path d="M97.7112 152.629C104.53 151.511 90.6887 137.337 87.269 138.679C83.8697 140.021 93.3348 153.341 97.7112 152.629Z" fill="url(#paint0_linear_184_1206)"/>
<path d="M87.7168 140.102C88.877 138.76 92.4392 140.916 93.2534 141.607C94.0676 142.298 94.6986 143.295 95.3499 144.149C96.3677 145.491 101.864 151.835 97.2837 152.039C94.8411 152.161 92.2763 149.151 91.1975 147.382C89.8744 145.227 88.6735 143.01 87.9204 140.611C87.5336 139.431 85.6813 139.919 86.0477 141.119C87.1469 144.84 89.3859 149.558 92.602 151.876C94.6375 153.34 99.3599 155.658 100.683 152.242C102.067 148.602 97.4465 144.21 95.3907 141.749C93.7623 139.797 88.9381 136.32 86.5973 138.943C85.9256 139.716 87.0655 140.834 87.7168 140.062V140.102Z" fill="white"/>
<path d="M87.8388 139.656C89.0397 137.48 94.2913 142.828 95.1869 143.743C96.0215 144.617 102.433 152.833 97.3853 152.365C95.3701 152.182 93.0496 149.721 91.9098 148.359C90.2203 146.366 88.9176 144.089 87.5945 141.831C87.452 141.567 86.9839 141.75 87.0856 142.035C88.5716 145.817 91.2991 150.108 94.9427 152.121C97.2224 153.382 99.5836 154.378 100.092 150.799C100.601 147.22 89.6911 134.531 87.1671 139.249C86.9432 139.676 87.5742 140.062 87.8184 139.635L87.8388 139.656Z" fill="#005253"/>
<path d="M265.711 361.629C272.53 360.511 258.689 346.337 255.269 347.679C251.87 349.021 261.335 362.341 265.711 361.629Z" fill="url(#paint1_linear_184_1206)"/>
<path d="M255.717 349.102C256.877 347.76 260.439 349.916 261.253 350.607C262.068 351.298 262.699 352.295 263.35 353.149C264.368 354.491 269.864 360.835 265.284 361.039C262.841 361.161 260.276 358.151 259.198 356.382C257.874 354.227 256.673 352.01 255.92 349.611C255.534 348.431 253.681 348.919 254.048 350.119C255.147 353.84 257.386 358.558 260.602 360.876C262.638 362.34 267.36 364.658 268.683 361.242C270.067 357.602 265.447 353.21 263.391 350.749C261.762 348.797 256.938 345.32 254.597 347.943C253.926 348.716 255.065 349.834 255.717 349.062V349.102Z" fill="white"/>
<path d="M255.839 348.656C257.04 346.48 262.291 351.828 263.187 352.743C264.021 353.617 270.433 361.833 265.385 361.365C263.37 361.182 261.05 358.721 259.91 357.359C258.22 355.366 256.918 353.089 255.595 350.831C255.452 350.567 254.984 350.75 255.086 351.035C256.572 354.817 259.299 359.108 262.943 361.121C265.222 362.382 267.584 363.378 268.092 359.799C268.601 356.22 257.691 343.531 255.167 348.249C254.943 348.676 255.574 349.062 255.818 348.635L255.839 348.656Z" fill="#005253"/>
<path d="M98.7112 498.629C105.53 497.511 91.6887 483.337 88.269 484.679C84.8697 486.021 94.3348 499.341 98.7112 498.629Z" fill="url(#paint2_linear_184_1206)"/>
<path d="M88.7168 486.102C89.877 484.76 93.4392 486.916 94.2534 487.607C95.0676 488.298 95.6986 489.295 96.3499 490.149C97.3677 491.491 102.864 497.835 98.2837 498.039C95.8411 498.161 93.2763 495.151 92.1975 493.382C90.8744 491.227 89.6735 489.01 88.9204 486.611C88.5336 485.431 86.6813 485.919 87.0477 487.119C88.1469 490.84 90.3859 495.558 93.602 497.876C95.6375 499.34 100.36 501.658 101.683 498.242C103.067 494.602 98.4465 490.21 96.3907 487.749C94.7623 485.797 89.9381 482.32 87.5973 484.943C86.9256 485.716 88.0655 486.834 88.7168 486.062V486.102Z" fill="white"/>
<path d="M88.8388 485.656C90.0397 483.48 95.2913 488.828 96.1869 489.743C97.0215 490.617 103.433 498.833 98.3853 498.365C96.3701 498.182 94.0496 495.721 92.9098 494.359C91.2203 492.366 89.9176 490.089 88.5945 487.831C88.452 487.567 87.9839 487.75 88.0856 488.035C89.5716 491.817 92.2991 496.108 95.9427 498.121C98.2224 499.382 100.584 500.378 101.092 496.799C101.601 493.22 90.6911 480.531 88.1671 485.249C87.9432 485.676 88.5742 486.062 88.8184 485.635L88.8388 485.656Z" fill="#005253"/>
<path d="M1757.71 485.629C1764.53 484.511 1750.69 470.337 1747.27 471.679C1743.87 473.021 1753.33 486.341 1757.71 485.629Z" fill="url(#paint3_linear_184_1206)"/>
<path d="M1747.72 473.102C1748.88 471.76 1752.44 473.916 1753.25 474.607C1754.07 475.298 1754.7 476.295 1755.35 477.149C1756.37 478.491 1761.86 484.835 1757.28 485.039C1754.84 485.161 1752.28 482.151 1751.2 480.382C1749.87 478.227 1748.67 476.01 1747.92 473.611C1747.53 472.431 1745.68 472.919 1746.05 474.119C1747.15 477.84 1749.39 482.558 1752.6 484.876C1754.64 486.34 1759.36 488.658 1760.68 485.242C1762.07 481.602 1757.45 477.21 1755.39 474.749C1753.76 472.797 1748.94 469.32 1746.6 471.943C1745.93 472.716 1747.07 473.834 1747.72 473.062V473.102Z" fill="white"/>
<path d="M1747.84 472.656C1749.04 470.48 1754.29 475.828 1755.19 476.743C1756.02 477.617 1762.43 485.833 1757.39 485.365C1755.37 485.182 1753.05 482.721 1751.91 481.359C1750.22 479.366 1748.92 477.089 1747.59 474.831C1747.45 474.567 1746.98 474.75 1747.09 475.035C1748.57 478.817 1751.3 483.108 1754.94 485.121C1757.22 486.382 1759.58 487.378 1760.09 483.799C1760.6 480.22 1749.69 467.531 1747.17 472.249C1746.94 472.676 1747.57 473.062 1747.82 472.635L1747.84 472.656Z" fill="#005253"/>
<path d="M129.83 305.49C131.723 308.804 136.384 298.881 135.02 297.376C133.656 295.871 128.608 303.355 129.83 305.49Z" fill="url(#paint4_linear_184_1206)"/>
<path d="M134.451 297.905C135.794 298.393 134.369 301.627 134.043 302.176C133.738 302.684 133.412 303.172 133.087 303.66C132.883 303.986 132.68 304.291 132.476 304.596C132.191 305.429 131.682 305.592 130.95 305.084C130.135 305.185 129.83 304.901 130.034 304.25C130.013 303.721 130.095 303.233 130.298 302.765C130.563 302.013 130.99 301.423 131.499 300.793C132.313 299.776 133.168 298.821 134.206 298.007C134.674 297.641 134.043 296.787 133.555 297.173C131.621 298.658 129.341 301.017 129.057 303.538C128.894 304.982 128.955 307.3 131.031 306.873C132.985 306.487 134.654 303.132 135.346 301.525C135.875 300.285 136.283 297.641 134.695 297.031C134.166 296.828 133.921 297.682 134.451 297.885V297.905Z" fill="white"/>
<path d="M134.613 297.865C136.079 298.088 134.003 302.359 133.697 302.948C133.249 303.802 131.662 306.71 130.379 305.897C129.097 305.083 130.522 302.379 130.888 301.687C131.58 300.427 132.517 299.308 133.433 298.19C133.555 298.048 133.372 297.844 133.209 297.966C131.499 299.512 129.891 301.708 129.524 304.026C129.301 305.47 129.28 306.812 131.214 306.385C133.148 305.958 137.585 297.844 134.634 297.458C134.41 297.437 134.349 297.824 134.573 297.865H134.613Z" fill="#005253"/>
<path d="M910.83 613.49C912.723 616.804 917.384 606.881 916.02 605.376C914.656 603.871 909.608 611.355 910.83 613.49Z" fill="url(#paint5_linear_184_1206)"/>
<path d="M915.451 605.905C916.794 606.393 915.369 609.627 915.043 610.176C914.738 610.684 914.412 611.172 914.087 611.66C913.883 611.986 913.68 612.291 913.476 612.596C913.191 613.429 912.682 613.592 911.95 613.084C911.135 613.185 910.83 612.901 911.034 612.25C911.013 611.721 911.095 611.233 911.298 610.765C911.563 610.013 911.99 609.423 912.499 608.793C913.313 607.776 914.168 606.821 915.206 606.007C915.674 605.641 915.043 604.787 914.555 605.173C912.621 606.658 910.341 609.017 910.057 611.538C909.894 612.982 909.955 615.3 912.031 614.873C913.985 614.487 915.654 611.132 916.346 609.525C916.875 608.285 917.283 605.641 915.695 605.031C915.166 604.828 914.921 605.682 915.451 605.885V605.905Z" fill="white"/>
<path d="M915.613 605.865C917.079 606.088 915.003 610.359 914.697 610.948C914.249 611.802 912.662 614.71 911.379 613.897C910.097 613.083 911.522 610.379 911.888 609.687C912.58 608.427 913.517 607.308 914.433 606.19C914.555 606.048 914.372 605.844 914.209 605.966C912.499 607.512 910.891 609.708 910.524 612.026C910.301 613.47 910.28 614.812 912.214 614.385C914.148 613.958 918.585 605.844 915.634 605.458C915.41 605.437 915.349 605.824 915.573 605.865H915.613Z" fill="#005253"/>
<path d="M1729.83 245.49C1731.72 248.804 1736.38 238.881 1735.02 237.376C1733.66 235.871 1728.61 243.355 1729.83 245.49Z" fill="url(#paint6_linear_184_1206)"/>
<path d="M1734.45 237.905C1735.79 238.393 1734.37 241.627 1734.04 242.176C1733.74 242.684 1733.41 243.172 1733.09 243.66C1732.88 243.986 1732.68 244.291 1732.48 244.596C1732.19 245.429 1731.68 245.592 1730.95 245.084C1730.14 245.185 1729.83 244.901 1730.03 244.25C1730.01 243.721 1730.09 243.233 1730.3 242.765C1730.56 242.013 1730.99 241.423 1731.5 240.793C1732.31 239.776 1733.17 238.821 1734.21 238.007C1734.67 237.641 1734.04 236.787 1733.55 237.173C1731.62 238.658 1729.34 241.017 1729.06 243.538C1728.89 244.982 1728.95 247.3 1731.03 246.873C1732.99 246.487 1734.65 243.132 1735.35 241.525C1735.88 240.285 1736.28 237.641 1734.69 237.031C1734.17 236.828 1733.92 237.682 1734.45 237.885V237.905Z" fill="white"/>
<path d="M1734.61 237.865C1736.08 238.088 1734 242.359 1733.7 242.948C1733.25 243.802 1731.66 246.71 1730.38 245.897C1729.1 245.083 1730.52 242.379 1730.89 241.687C1731.58 240.427 1732.52 239.308 1733.43 238.19C1733.55 238.048 1733.37 237.844 1733.21 237.966C1731.5 239.512 1729.89 241.708 1729.52 244.026C1729.3 245.47 1729.28 246.812 1731.21 246.385C1733.15 245.958 1737.59 237.844 1734.63 237.458C1734.41 237.437 1734.35 237.824 1734.57 237.865H1734.61Z" fill="#005253"/>
<path d="M1600.59 82.153C1595.2 77.8624 1593.97 97.6279 1597.25 99.2343C1600.55 100.841 1604.05 84.8982 1600.59 82.153Z" fill="url(#paint7_linear_184_1206)"/>
<path d="M1597.96 97.9519C1594.81 97.7079 1595.58 91.2821 1595.89 89.5536C1596.19 87.8252 1596.27 84.2056 1597.58 82.9855L1600.28 82.4975C1600.69 83.3922 1601.04 84.3073 1601.32 85.2427C1601.79 87.0525 1601.53 88.7199 1601.06 90.5297C1600.43 92.9496 1599.47 95.3491 1598.23 97.5046C1597.6 98.5823 1599.27 99.5584 1599.92 98.4806C1602.2 94.6577 1604.4 89.208 1603.15 84.7343C1602.42 82.1111 1600.79 78.5932 1597.64 80.586C1594.69 82.4568 1594.38 88.3946 1594.05 91.4651C1593.77 94.2103 1594.52 99.233 1597.96 99.5584C1598.98 99.6601 1598.98 98.0536 1597.96 97.9723V97.9519Z" fill="white"/>
<path d="M1597.58 98.1748C1594.58 98.8662 1594.67 79.1617 1600 82.2119C1601.89 83.31 1601.55 87.4583 1601.32 89.2478C1600.98 91.871 1600.18 94.3519 1599.39 96.8734C1599.29 97.1581 1599.75 97.3614 1599.9 97.0767C1601.93 92.9284 1602.99 88.0684 1601.79 83.5744C1601.2 81.3375 1600.55 79.9955 1598.02 81.4392C1594.54 83.4117 1592.47 100.249 1597.8 98.9069C1598.27 98.7849 1598.07 98.0731 1597.6 98.1748H1597.58Z" fill="#005253"/>
<path d="M1629.59 336.153C1624.2 331.862 1622.97 351.628 1626.25 353.234C1629.55 354.841 1633.05 338.898 1629.59 336.153Z" fill="url(#paint8_linear_184_1206)"/>
<path d="M1626.96 351.952C1623.81 351.708 1624.58 345.282 1624.89 343.554C1625.19 341.825 1625.27 338.206 1626.58 336.985L1629.28 336.497C1629.69 337.392 1630.04 338.307 1630.32 339.243C1630.79 341.052 1630.53 342.72 1630.06 344.53C1629.43 346.95 1628.47 349.349 1627.23 351.505C1626.6 352.582 1628.27 353.558 1628.92 352.481C1631.2 348.658 1633.4 343.208 1632.15 338.734C1631.42 336.111 1629.79 332.593 1626.64 334.586C1623.69 336.457 1623.38 342.395 1623.05 345.465C1622.77 348.21 1623.52 353.233 1626.96 353.558C1627.98 353.66 1627.98 352.054 1626.96 351.972V351.952Z" fill="white"/>
<path d="M1626.58 352.175C1623.58 352.866 1623.67 333.162 1629 336.212C1630.89 337.31 1630.55 341.458 1630.32 343.248C1629.98 345.871 1629.18 348.352 1628.39 350.873C1628.29 351.158 1628.75 351.361 1628.9 351.077C1630.93 346.928 1631.99 342.068 1630.79 337.574C1630.2 335.338 1629.55 333.995 1627.02 335.439C1623.54 337.412 1621.47 354.249 1626.8 352.907C1627.27 352.785 1627.07 352.073 1626.6 352.175H1626.58Z" fill="#005253"/>
</g>
<defs>
<linearGradient id="paint0_linear_184_1206" x1="99.9158" y1="149.664" x2="87.8445" y2="143.162" gradientUnits="userSpaceOnUse">
<stop offset="0.14" stop-color="#FEFEFC"/>
<stop offset="1" stop-color="#FAE1C7"/>
</linearGradient>
<linearGradient id="paint1_linear_184_1206" x1="267.916" y1="358.664" x2="255.844" y2="352.162" gradientUnits="userSpaceOnUse">
<stop offset="0.14" stop-color="#FEFEFC"/>
<stop offset="1" stop-color="#FAE1C7"/>
</linearGradient>
<linearGradient id="paint2_linear_184_1206" x1="100.916" y1="495.664" x2="88.8445" y2="489.162" gradientUnits="userSpaceOnUse">
<stop offset="0.14" stop-color="#FEFEFC"/>
<stop offset="1" stop-color="#FAE1C7"/>
</linearGradient>
<linearGradient id="paint3_linear_184_1206" x1="1759.92" y1="482.664" x2="1747.84" y2="476.162" gradientUnits="userSpaceOnUse">
<stop offset="0.14" stop-color="#FEFEFC"/>
<stop offset="1" stop-color="#FAE1C7"/>
</linearGradient>
<linearGradient id="paint4_linear_184_1206" x1="131.827" y1="306.121" x2="132.835" y2="298.616" gradientUnits="userSpaceOnUse">
<stop offset="0.14" stop-color="#FEFEFC"/>
<stop offset="1" stop-color="#FAE1C7"/>
</linearGradient>
<linearGradient id="paint5_linear_184_1206" x1="912.827" y1="614.121" x2="913.835" y2="606.616" gradientUnits="userSpaceOnUse">
<stop offset="0.14" stop-color="#FEFEFC"/>
<stop offset="1" stop-color="#FAE1C7"/>
</linearGradient>
<linearGradient id="paint6_linear_184_1206" x1="1731.83" y1="246.121" x2="1732.84" y2="238.616" gradientUnits="userSpaceOnUse">
<stop offset="0.14" stop-color="#FEFEFC"/>
<stop offset="1" stop-color="#FAE1C7"/>
</linearGradient>
<linearGradient id="paint7_linear_184_1206" x1="1596.78" y1="82.549" x2="1600.09" y2="95.8555" gradientUnits="userSpaceOnUse">
<stop offset="0.14" stop-color="#FEFEFC"/>
<stop offset="1" stop-color="#FAE1C7"/>
</linearGradient>
<linearGradient id="paint8_linear_184_1206" x1="1625.78" y1="336.549" x2="1629.09" y2="349.856" gradientUnits="userSpaceOnUse">
<stop offset="0.14" stop-color="#FEFEFC"/>
<stop offset="1" stop-color="#FAE1C7"/>
</linearGradient>
<clipPath id="clip0_184_1206">
<rect width="1920" height="700" fill="white"/>
</clipPath>
</defs>
</svg>
